<?xml version="1.0" encoding="iso-8859-1"?>
<!-- Generator: Adobe Illustrator 19.0.0, SVG Export Plug-In . SVG Version: 6.00 Build 0)  -->
<svg version="1.1" id="Layer_1" xmlns="http://www.w3.org/2000/svg" xmlns:xlink="http://www.w3.org/1999/xlink" x="0px" y="0px"
	 viewBox="0 0 512 512" style="enable-background:new 0 0 512 512;" xml:space="preserve">
<path style="fill:#802812;" d="M0.288,54.085c111.515,0,201.627,90.4,201.627,201.915S111.803,457.915,0.288,457.915"/>
<g>
	<rect x="43.268" y="234.366" style="fill:#FFC170;" width="43.268" height="43.268"/>
	<rect x="129.803" y="234.366" style="fill:#FFC170;" width="64.901" height="43.268"/>
</g>
<circle style="fill:#78B9EB;" cx="338.93" cy="256" r="72.113"/>
<path style="fill:#5A8BB0;" d="M338.93,183.887c39.826,0,72.113,32.286,72.113,72.113s-32.286,72.113-72.113,72.113"/>
<circle style="fill:#BF3C1A;" cx="483.155" cy="256" r="28.845"/>
<path style="fill:#802812;" d="M483.155,227.155C499.086,227.155,512,240.069,512,256s-12.914,28.845-28.845,28.845"/>
<g>
	<path style="fill:#FFC170;" d="M0,162.254c54.612,0,104.703-19.695,143.571-52.342c-4.977-4.126-9.949-8.261-14.924-12.39
		c-6.352-5.271-12.729-10.51-19.14-15.71C79.128,105.113,41.156,118.986,0,118.986V162.254z"/>
	<path style="fill:#FFC170;" d="M0,350.708c54.612,0,104.703,19.695,143.571,52.342c-4.977,4.126-9.949,8.26-14.924,12.39
		c-6.352,5.271-12.729,10.51-19.14,15.71C79.128,407.849,41.156,393.976,0,393.976V350.708z"/>
</g>
<path style="fill:#FF5023;" d="M0,479.549v-43.268c99.407,0,180.282-80.874,180.282-180.282S99.407,75.718,0,75.718V32.451
	c123.267,0,223.549,100.283,223.549,223.549S123.267,479.549,0,479.549z"/>
<g>
</g>
<g>
</g>
<g>
</g>
<g>
</g>
<g>
</g>
<g>
</g>
<g>
</g>
<g>
</g>
<g>
</g>
<g>
</g>
<g>
</g>
<g>
</g>
<g>
</g>
<g>
</g>
<g>
</g>
</svg>
